<svg xmlns="http://www.w3.org/2000/svg" viewBox="0 0 1110 540" width="1110" height="540" role="img" aria-label="Cool Cooking Recipes">
  <title>Cool Cooking Recipes</title>
  <defs>
    <!-- lit from above: lighter top, darker bottom -->
    <linearGradient id="steel" x1="0" y1="0" x2="0" y2="1">
      <stop offset="0" stop-color="#B8BEC5"/>
      <stop offset="0.55" stop-color="#8E959D"/>
      <stop offset="1" stop-color="#6F767E"/>
    </linearGradient>
    <filter id="shadow" x="-5%" y="-10%" width="110%" height="125%">
      <feDropShadow dx="0" dy="6" stdDeviation="5" flood-color="#000" flood-opacity="0.18"/>
    </filter>
  </defs>
  <rect width="1110" height="540" fill="#FFF8F0"/>
  <!-- whole fork as one shape: handle, neck, four shorter tines -->
  <path filter="url(#shadow)" fill="url(#steel)" stroke="#4F565E" stroke-width="5" stroke-linejoin="round"
    d="M90 230 L470 230 C550 230, 560 92, 650 92
       L1000 92 Q1045 92 1062 117 Q1045 142 1000 142
       L686 142 A26 26 0 0 0 686 194
       L1000 194 Q1045 194 1062 219 Q1045 244 1000 244
       L686 244 A26 26 0 0 0 686 296
       L1000 296 Q1045 296 1062 321 Q1045 346 1000 346
       L686 346 A26 26 0 0 0 686 398
       L1000 398 Q1045 398 1062 423 Q1045 448 1000 448
       L650 448 C560 448, 550 310, 470 310
       L90 310 A40 40 0 0 1 90 230 Z"/>
  <!-- highlights along the handle and tine tops -->
  <g stroke="#FFFFFF" stroke-opacity="0.35" stroke-width="6" stroke-linecap="round" fill="none">
    <path d="M92 245 L468 245"/>
    <path d="M700 105 L990 105"/>
    <path d="M720 207 L990 207"/>
    <path d="M720 309 L990 309"/>
    <path d="M720 411 L990 411"/>
  </g>
  <g fill="#2B2B2B" font-family="Nunito, 'Arial Rounded MT Bold', 'DejaVu Sans', sans-serif" font-weight="800" font-size="42" text-anchor="middle" dominant-baseline="central">
    <text x="868" y="168">Cool</text>
    <text x="868" y="270">Cooking</text>
    <text x="868" y="372">Recipes</text>
  </g>
</svg>
